<svg width="40" height="40" viewBox="0 0 40 40" fill="none" xmlns="http://www.w3.org/2000/svg">
<path d="M33.3142 40H6.68583C3.00616 40 0 36.9938 0 33.3142V6.68583C0 3.00616 3.00616 0 6.68583 0H33.3142C36.9938 0 40 3.00616 40 6.68583V33.3142C40 37.0103 37.0103 40 33.3142 40Z" fill="#F97316"/>
<path d="M20.0082 30.2751C17.2648 30.2751 14.6858 29.2073 12.7474 27.2689C10.809 25.3305 9.74121 22.7515 9.74121 20.0082C9.74121 17.2648 10.809 14.6858 12.7474 12.7474C14.6858 10.809 17.2648 9.74121 20.0082 9.74121C22.7515 9.74121 25.3305 10.809 27.2689 12.7474C29.2073 14.6858 30.2751 17.2648 30.2751 20.0082C30.2751 22.7515 29.2073 25.3305 27.2689 27.2689C25.3141 29.2073 22.7515 30.2751 20.0082 30.2751ZM20.0082 11.926C15.5564 11.926 11.926 15.54 11.926 20.0082C11.926 24.4599 15.54 28.0903 20.0082 28.0903C24.4599 28.0903 28.0903 24.4763 28.0903 20.0082C28.0739 15.5564 24.4599 11.926 20.0082 11.926Z" fill="white"/>
<path d="M32.2765 9.40403C33.3652 9.40403 34.2478 8.52145 34.2478 7.43273C34.2478 6.34401 33.3652 5.46143 32.2765 5.46143C31.1878 5.46143 30.3052 6.34401 30.3052 7.43273C30.3052 8.52145 31.1878 9.40403 32.2765 9.40403Z" fill="white"/>
</svg>
